<svg xmlns="http://www.w3.org/2000/svg" width="1200" height="800" viewBox="0 0 1200 800">
  <defs>
    <linearGradient id="bg" x1="0" y1="0" x2="1" y2="1">
      <stop offset="0" stop-color="#16202d"/>
      <stop offset="1" stop-color="#1b2838"/>
    </linearGradient>
    <linearGradient id="accent" x1="0" y1="0" x2="1" y2="1">
      <stop offset="0" stop-color="#66c0f4"/>
      <stop offset="1" stop-color="#a06bd6"/>
    </linearGradient>
  </defs>
  <rect width="1200" height="800" fill="url(#bg)"/>
  <g opacity="0.5">
    <line x1="0" y1="200" x2="1200" y2="200" stroke="#ffffff" stroke-opacity="0.04"/>
    <line x1="0" y1="400" x2="1200" y2="400" stroke="#ffffff" stroke-opacity="0.04"/>
    <line x1="0" y1="600" x2="1200" y2="600" stroke="#ffffff" stroke-opacity="0.04"/>
    <line x1="300" y1="0" x2="300" y2="800" stroke="#ffffff" stroke-opacity="0.04"/>
    <line x1="600" y1="0" x2="600" y2="800" stroke="#ffffff" stroke-opacity="0.04"/>
    <line x1="900" y1="0" x2="900" y2="800" stroke="#ffffff" stroke-opacity="0.04"/>
  </g>
  <g transform="translate(600 330)">
    <circle r="78" fill="none" stroke="url(#accent)" stroke-width="3" opacity="0.8"/>
    <path d="M0,-44 C24,-44 44,-24 44,0 C44,24 24,44 0,44 C-24,44 -44,24 -44,0 C-44,-24 -24,-44 0,-44 Z M0,-22 C12,-22 22,-12 22,0 C22,12 12,22 0,22 C-12,22 -22,12 -22,0 C-22,-12 -12,-22 0,-22 Z" fill="url(#accent)" opacity="0.9"/>
  </g>
  <text x="600" y="490" text-anchor="middle" font-family="ui-sans-serif, system-ui, Segoe UI, Roboto" font-size="52" fill="#ffffff" font-weight="700">Bloom</text>
  <text x="600" y="540" text-anchor="middle" font-family="ui-sans-serif, system-ui, Segoe UI, Roboto" font-size="24" fill="#8f98a0">Calendar · notes · life app for students</text>
  <text x="600" y="585" text-anchor="middle" font-family="ui-sans-serif, system-ui, Segoe UI, Roboto" font-size="18" fill="#66c0f4" letter-spacing="2">SCREENSHOTS COMING SOON</text>
</svg>
